# xmcd CD database file
#
# Track frame offsets:
#	150
#	20265
#	29370
#	89360
#	96570
#	169450
#	195555
#
# Disc length: 3206 seconds
#
# Revision: 0
# Processed by: cddbd v1.5.1PL0 Copyright (c) Steve Scherf et al.
# Submitted via: CDex 1.50Beta7
#
DISCID=570c8407
DTITLE=Rob Mazurek - amorphic winged
DYEAR=2001
DGENRE=Jazz
TTITLE0=Time Coded Single
TTITLE1=Strange Logics
TTITLE2=The Shaping Light
TTITLE3=Clouded Rooms
TTITLE4=Steel Cut Oak
TTITLE5=Shower Music
TTITLE6=Amorphic Winged
EXTD=YEAR: 2001
EXTT0=
EXTT1=
EXTT2=
EXTT3=
EXTT4=
EXTT5=
EXTT6=
PLAYORDER=
